<?xml version="1.0" encoding="utf-8"?>
<!-- Generator: Adobe Illustrator 23.0.3, SVG Export Plug-In . SVG Version: 6.00 Build 0)  -->
<svg version="1.1" id="Livello_1" xmlns="http://www.w3.org/2000/svg" xmlns:xlink="http://www.w3.org/1999/xlink" x="0px" y="0px"
	 viewBox="0 0 100 100" style="enable-background:new 0 0 100 100;" xml:space="preserve">
<g>
	<path d="M48.2,37.3v11.9c0,3.1-2.1,5.1-5.5,5.1c-3.3,0-5.1-1.9-5.5-4.7l3.4-0.7c0.3,1.4,1,2.2,2.1,2.2c1.1,0,1.9-0.6,1.9-2.1v-8.8
		h-5.1v-2.9H48.2z"/>
	<path d="M51.6,41.5h3.6v2.1h0.1c0.4-1.4,1.8-2.4,3.4-2.4c3.2,0,4.8,2.3,4.8,6.6s-1.7,6.6-4.8,6.6c-1.6,0-3-1-3.4-2.4h-0.1v6.9h-3.6
		V41.5z M59.8,48.9v-2.2c0-1.6-1-2.6-2.3-2.6s-2.3,0.7-2.3,1.8v3.7c0,1.2,1,1.8,2.3,1.8S59.8,50.5,59.8,48.9z"/>
</g>
</svg>
